<svg version="1.2" width="723.326" height="661.72" viewBox="878 1009 19138 17508" preserveAspectRatio="xMidYMid" fill-rule="evenodd" stroke-width="28.222" stroke-linejoin="round" xmlns="http://www.w3.org/2000/svg" xmlns:ooo="http://xml.openoffice.org/svg/export" xmlns:xlink="http://www.w3.org/1999/xlink"><defs class="prefix__EmbeddedBulletChars"><path d="M813 0C632 0 489 54 383 161 276 268 223 411 223 592s53 324 160 431c106 107 249 161 430 161 179 0 323-54 432-161 108-107 162-251 162-431s-54-324-162-431C1136 54 992 0 813 0z" transform="scale(.00049 -.00049)" id="prefix__c"/></defs><g class="prefix__Page"><g class="prefix__com_sun_star_drawing_CustomShape"><path class="prefix__BoundingBox" fill="none" d="M12735 6485h7281v7031h-7281z"/><path fill="#D9EEFF" d="M16375 13500h-3625V6500h7250v7000h-3625z"/><path fill="none" stroke="#77A8D0" stroke-width="30" d="M16375 13500h-3625V6500h7250v7000h-3625z"/><text class="prefix__TextShape"><tspan class="prefix__TextParagraph" font-family="Liberation Sans, sans-serif" font-size="353" font-weight="400"><tspan class="prefix__TextPosition" x="15090" y="6943"><tspan fill="#4D80AA">Controller.Action</tspan></tspan></tspan></text></g><g class="prefix__com_sun_star_drawing_CustomShape"><path class="prefix__BoundingBox" fill="none" d="M1235 10485h18281v2031H1235z"/><path fill="#F5F5F5" d="M10375 12500H1250v-2000h18250v2000h-9125z"/><defs><pattern id="prefix__a" x="1250" y="10500" width="18251" height="2001" patternUnits="userSpaceOnUse"><g fill="#909090" stroke="#909090"><path d="M1532 10500v2000M1832 10500v2000M2132 10500v2000M2432 10500v2000M2732 10500v2000M3032 10500v2000M3332 10500v2000M3632 10500v2000M3932 10500v2000M4232 10500v2000M4532 10500v2000M4832 10500v2000M5132 10500v2000M5432 10500v2000M5732 10500v2000M6032 10500v2000M6332 10500v2000M6632 10500v2000M6932 10500v2000M7232 10500v2000M7532 10500v2000M7832 10500v2000M8132 10500v2000M8432 10500v2000M8732 10500v2000M9032 10500v2000M9332 10500v2000M9632 10500v2000M9932 10500v2000M10232 10500v2000M10532 10500v2000M10832 10500v2000M11132 10500v2000M11432 10500v2000M11732 10500v2000M12032 10500v2000M12332 10500v2000M12632 10500v2000M12932 10500v2000M13232 10500v2000M13532 10500v2000M13832 10500v2000M14132 10500v2000M14432 10500v2000M14732 10500v2000M15032 10500v2000M15332 10500v2000M15632 10500v2000M15932 10500v2000M16232 10500v2000M16532 10500v2000M16832 10500v2000M17132 10500v2000M17432 10500v2000M17732 10500v2000M18032 10500v2000M18332 10500v2000M18632 10500v2000M18932 10500v2000M19232 10500v2000" transform="translate(-1250 -10500)"/></g></pattern></defs><path d="M10375 12500H1250v-2000h18250v2000h-9125z" fill="url(#prefix__a)"/><path fill="none" stroke="#B5B5B5" stroke-width="30" d="M10375 12500H1250v-2000h18250v2000h-9125z"/></g><g class="prefix__com_sun_star_drawing_CustomShape"><path class="prefix__BoundingBox" fill="none" d="M1235 7485h18281v2031H1235z"/><path fill="#F5F5F5" d="M10375 9500H1250V7500h18250v2000h-9125z"/><defs><pattern id="prefix__b" x="1250" y="7500" width="18251" height="2001" patternUnits="userSpaceOnUse"><g fill="#909090" stroke="#909090"><path d="M1532 7500v2000M1832 7500v2000M2132 7500v2000M2432 7500v2000M2732 7500v2000M3032 7500v2000M3332 7500v2000M3632 7500v2000M3932 7500v2000M4232 7500v2000M4532 7500v2000M4832 7500v2000M5132 7500v2000M5432 7500v2000M5732 7500v2000M6032 7500v2000M6332 7500v2000M6632 7500v2000M6932 7500v2000M7232 7500v2000M7532 7500v2000M7832 7500v2000M8132 7500v2000M8432 7500v2000M8732 7500v2000M9032 7500v2000M9332 7500v2000M9632 7500v2000M9932 7500v2000M10232 7500v2000M10532 7500v2000M10832 7500v2000M11132 7500v2000M11432 7500v2000M11732 7500v2000M12032 7500v2000M12332 7500v2000M12632 7500v2000M12932 7500v2000M13232 7500v2000M13532 7500v2000M13832 7500v2000M14132 7500v2000M14432 7500v2000M14732 7500v2000M15032 7500v2000M15332 7500v2000M15632 7500v2000M15932 7500v2000M16232 7500v2000M16532 7500v2000M16832 7500v2000M17132 7500v2000M17432 7500v2000M17732 7500v2000M18032 7500v2000M18332 7500v2000M18632 7500v2000M18932 7500v2000M19232 7500v2000" transform="translate(-1250 -7500)"/></g></pattern></defs><path d="M10375 9500H1250V7500h18250v2000h-9125z" fill="url(#prefix__b)"/><path fill="none" stroke="#B5B5B5" stroke-width="30" d="M10375 9500H1250V7500h18250v2000h-9125z"/></g><g class="prefix__com_sun_star_drawing_CustomShape"><path class="prefix__BoundingBox" fill="none" d="M921 7221h2296v2558H921z"/><path fill="#F5F5F5" d="M1246 9750v-431H937V7680h309v-431l1942 1251-1942 1250z"/><path fill="none" stroke="#B5B5B5" stroke-width="30" stroke-linejoin="miter" d="M1246 9750v-431H937V7680h309v-431l1942 1251-1942 1250z"/></g><g class="prefix__com_sun_star_drawing_CustomShape"><path class="prefix__BoundingBox" fill="none" d="M3235 6485h2031v7031H3235z"/><path fill="#D9EEFF" d="M5250 10000v3500H3250V6500h2000v3500z"/><path fill="none" stroke="#77A8D0" stroke-width="30" d="M5250 10000v3500H3250V6500h2000v3500z"/><text class="prefix__TextShape" transform="rotate(-90 4371 11383)"><tspan class="prefix__TextParagraph" font-family="Liberation Sans, sans-serif" font-size="353" font-weight="400"><tspan class="prefix__TextPosition" x="4371" y="11383"><tspan fill="#4D80AA">Static Middleware</tspan></tspan></tspan></text></g><g class="prefix__com_sun_star_drawing_CustomShape"><path class="prefix__BoundingBox" fill="none" d="M6235 6485h2031v7031H6235z"/><path fill="#D9EEFF" d="M8250 10000v3500H6250V6500h2000v3500z"/><path fill="none" stroke="#77A8D0" stroke-width="30" d="M8250 10000v3500H6250V6500h2000v3500z"/><text class="prefix__TextShape" transform="rotate(-90 7371 11042)"><tspan class="prefix__TextParagraph" font-family="Liberation Sans, sans-serif" font-size="353" font-weight="400"><tspan class="prefix__TextPosition" x="7371" y="11042"><tspan fill="#4D80AA">Middleware 2</tspan></tspan></tspan></text></g><g class="prefix__com_sun_star_drawing_CustomShape"><path class="prefix__BoundingBox" fill="none" d="M1422 7734h1531v1531H1422z"/><path fill="#97B5CF" d="M2187 9249h-750V7749h1500v1500h-750z"/><path fill="none" stroke="#4D80AA" stroke-width="30" d="M2187 9249h-750V7749h1500v1500h-750z"/></g><g class="prefix__com_sun_star_drawing_CustomShape"><path class="prefix__BoundingBox" fill="none" d="M2201 2235h3417v6271H2201z"/><path fill="none" stroke="#77A8D0" stroke-width="30" d="M3230 2250v3251M3230 2859L2216 8490"/><text class="prefix__TextShape"><tspan class="prefix__TextParagraph" font-family="Liberation Sans, sans-serif" font-size="282" font-weight="400"><tspan class="prefix__TextPosition" x="3500" y="2633"><tspan fill="#4D80AA">Request</tspan></tspan></tspan><tspan ooo:numbering-type="bullet-style" class="prefix__ListItem" font-family="Liberation Sans, sans-serif" font-size="282" font-weight="400"><tspan class="prefix__TextPosition" x="3500" y="2881"/><tspan class="prefix__TextPosition" x="3800" y="2951"><tspan fill="#4D80AA">QueryString</tspan></tspan></tspan><tspan ooo:numbering-type="bullet-style" class="prefix__ListItem" font-family="Liberation Sans, sans-serif" font-size="282" font-weight="400"><tspan class="prefix__TextPosition" x="3500" y="3199"/><tspan class="prefix__TextPosition" x="3800" y="3269"><tspan fill="#4D80AA">HTTPHeaders</tspan></tspan></tspan><tspan ooo:numbering-type="bullet-style" class="prefix__ListItem" font-family="Liberation Sans, sans-serif" font-size="282" font-weight="400"><tspan class="prefix__TextPosition" x="3500" y="3517"/><tspan class="prefix__TextPosition" x="3800" y="3587"><tspan fill="#4D80AA">Cookies</tspan></tspan></tspan><tspan ooo:numbering-type="bullet-style" class="prefix__ListItem" font-family="Liberation Sans, sans-serif" font-size="282" font-weight="400"><tspan class="prefix__TextPosition" x="3500" y="3835"/><tspan class="prefix__TextPosition" x="3800" y="3905"><tspan fill="#4D80AA">Body</tspan></tspan></tspan></text><g class="prefix__BulletChars"><use transform="matrix(126 0 0 126 3500 2881)" xlink:href="#prefix__c"/><use transform="matrix(126 0 0 126 3500 3199)" xlink:href="#prefix__c"/><use transform="matrix(126 0 0 126 3500 3517)" xlink:href="#prefix__c"/><use transform="matrix(126 0 0 126 3500 3835)" xlink:href="#prefix__c"/></g></g><g class="prefix__com_sun_star_drawing_CustomShape"><path class="prefix__BoundingBox" fill="none" d="M9235 6485h2031v7031H9235z"/><path fill="#D9EEFF" d="M11250 10000v3500H9250V6500h2000v3500z"/><path fill="none" stroke="#77A8D0" stroke-width="30" d="M11250 10000v3500H9250V6500h2000v3500z"/><text class="prefix__TextShape" transform="rotate(-90 10371 11548)"><tspan class="prefix__TextParagraph" font-family="Liberation Sans, sans-serif" font-size="353" font-weight="400"><tspan class="prefix__TextPosition" x="10371" y="11548"><tspan fill="#4D80AA">Routing Middleware</tspan></tspan></tspan></text></g><g class="prefix__com_sun_star_drawing_CustomShape"><path class="prefix__BoundingBox" fill="none" d="M3530 8235h1494v3562H3530z"/><path fill="none" stroke="#77A8D0" stroke-width="30" stroke-linejoin="miter" d="M3552 9717h362V8250h724v1467h363l-725 2034-724-2034z"/></g><g class="prefix__com_sun_star_drawing_CustomShape"><path class="prefix__BoundingBox" fill="none" d="M6483 8029h1636v744H6483z"/><path fill="#D9EEFF" d="M7091 8750v-174h-592v-350h592v-175l982 350-982 349z"/><path fill="none" stroke="#77A8D0" stroke-width="30" stroke-linejoin="miter" d="M7091 8750v-174h-592v-350h592v-175l982 350-982 349z"/></g><g class="prefix__com_sun_star_drawing_CustomShape"><path class="prefix__BoundingBox" fill="none" d="M6453 11280h1635v744H6453z"/><path fill="#D9EEFF" d="M7480 11302v174h592v350h-592v175l-982-350 982-349z"/><path fill="none" stroke="#77A8D0" stroke-width="30" stroke-linejoin="miter" d="M7480 11302v174h592v350h-592v175l-982-350 982-349z"/></g><g class="prefix__com_sun_star_drawing_CustomShape"><path class="prefix__BoundingBox" fill="none" d="M11485 7735h1531v1531h-1531z"/><path fill="#97B5CF" d="M12250 9250h-750V7750h1500v1500h-750z"/><path fill="none" stroke="#4D80AA" stroke-width="30" d="M12250 9250h-750V7750h1500v1500h-750z"/></g><g class="prefix__com_sun_star_drawing_CustomShape"><path class="prefix__BoundingBox" fill="none" d="M8741 2235h3497v6302H8741z"/><path fill="none" stroke="#77A8D0" stroke-width="30" d="M11051 2250v3251M11051 2753l1171 5768"/><text class="prefix__TextShape"><tspan class="prefix__TextParagraph" font-family="Liberation Sans, sans-serif" font-size="282" font-weight="400"><tspan class="prefix__TextPosition" x="8750" y="2633"><tspan fill="#B0B0B0">Request</tspan></tspan></tspan><tspan ooo:numbering-type="bullet-style" class="prefix__ListItem" font-family="Liberation Sans, sans-serif" font-size="282" font-weight="400"><tspan class="prefix__TextPosition" x="8750" y="2881"/><tspan class="prefix__TextPosition" x="9050" y="2951"><tspan fill="#B0B0B0">QueryString</tspan></tspan></tspan><tspan ooo:numbering-type="bullet-style" class="prefix__ListItem" font-family="Liberation Sans, sans-serif" font-size="282" font-weight="400"><tspan class="prefix__TextPosition" x="8750" y="3199"/><tspan class="prefix__TextPosition" x="9050" y="3269"><tspan fill="#B0B0B0">HTTPHeaders</tspan></tspan></tspan><tspan ooo:numbering-type="bullet-style" class="prefix__ListItem" font-family="Liberation Sans, sans-serif" font-size="282" font-weight="400"><tspan class="prefix__TextPosition" x="8750" y="3517"/><tspan class="prefix__TextPosition" x="9050" y="3587"><tspan fill="#B0B0B0">Cookies</tspan></tspan></tspan><tspan ooo:numbering-type="bullet-style" class="prefix__ListItem" font-family="Liberation Sans, sans-serif" font-size="282" font-weight="400"><tspan class="prefix__TextPosition" x="8750" y="3835"/><tspan class="prefix__TextPosition" x="9050" y="3905"><tspan fill="#B0B0B0">Body</tspan></tspan></tspan><tspan class="prefix__TextParagraph" font-family="Liberation Sans, sans-serif" font-size="282" font-weight="400"><tspan class="prefix__TextPosition" x="8750" y="4223"><tspan fill="#4D80AA">EndPoint</tspan></tspan></tspan><tspan class="prefix__TextParagraph" font-family="Liberation Sans, sans-serif" font-size="282" font-weight="400"><tspan class="prefix__TextPosition" x="8750" y="4541"><tspan fill="#4D80AA">ControllerContext</tspan></tspan></tspan><tspan class="prefix__TextParagraph" font-family="Liberation Sans, sans-serif" font-size="282" font-weight="400"><tspan class="prefix__TextPosition" x="8750" y="4859"><tspan fill="#4D80AA">ActionDescription</tspan></tspan></tspan><tspan class="prefix__TextParagraph" font-family="Liberation Sans, sans-serif" font-size="282" font-weight="400"><tspan class="prefix__TextPosition" x="8750" y="5177"><tspan fill="#4D80AA">Arguments</tspan></tspan></tspan></text><g class="prefix__BulletChars"><use transform="matrix(126 0 0 126 8750 2881)" xlink:href="#prefix__c"/><use transform="matrix(126 0 0 126 8750 3199)" xlink:href="#prefix__c"/><use transform="matrix(126 0 0 126 8750 3517)" xlink:href="#prefix__c"/><use transform="matrix(126 0 0 126 8750 3835)" xlink:href="#prefix__c"/></g></g><g class="prefix__com_sun_star_drawing_CustomShape"><path class="prefix__BoundingBox" fill="none" d="M13235 6985h781v3031h-781z"/><path fill="#D9EEFF" d="M14000 8500v1500h-750V7000h750v1500z"/><path fill="none" stroke="#77A8D0" stroke-width="30" d="M14000 8500v1500h-750V7000h750v1500z"/><text class="prefix__TextShape" transform="rotate(-90 13746 9477)"><tspan class="prefix__TextParagraph" font-family="Liberation Sans, sans-serif" font-size="353" font-weight="400"><tspan class="prefix__TextPosition" x="13746" y="9477"><tspan fill="#4D80AA">Data Source</tspan></tspan></tspan></text></g><g class="prefix__com_sun_star_drawing_CustomShape"><path class="prefix__BoundingBox" fill="none" d="M15985 6985h781v3031h-781z"/><path fill="#D9EEFF" d="M16750 8500v1500h-750V7000h750v1500z"/><path fill="none" stroke="#77A8D0" stroke-width="30" d="M16750 8500v1500h-750V7000h750v1500z"/><text class="prefix__TextShape" transform="rotate(-90 16496 9618)"><tspan class="prefix__TextParagraph" font-family="Liberation Sans, sans-serif" font-size="353" font-weight="400"><tspan class="prefix__TextPosition" x="16496" y="9618"><tspan fill="#4D80AA">Access Check</tspan></tspan></tspan></text></g><g class="prefix__com_sun_star_drawing_CustomShape"><path class="prefix__BoundingBox" fill="none" d="M18735 6985h781v6031h-781z"/><path fill="#D9EEFF" d="M19500 10000v3000h-750V7000h750v3000z"/><path fill="none" stroke="#77A8D0" stroke-width="30" d="M19500 10000v3000h-750V7000h750v3000z"/><text class="prefix__TextShape" transform="rotate(-90 19246 10225)"><tspan class="prefix__TextParagraph" font-family="Liberation Sans, sans-serif" font-size="353" font-weight="400"><tspan class="prefix__TextPosition" x="19246" y="10225"><tspan fill="#4D80AA">Do</tspan></tspan></tspan></text></g><g class="prefix__com_sun_star_drawing_CustomShape"><path class="prefix__BoundingBox" fill="none" d="M15985 9985h781v3031h-781z"/><path fill="#D9EEFF" d="M16000 11500v-1500h750v3000h-750v-1500z"/><path fill="none" stroke="#77A8D0" stroke-width="30" d="M16000 11500v-1500h750v3000h-750v-1500z"/><text class="prefix__TextShape" transform="rotate(89.9 16254 10450)"><tspan class="prefix__TextParagraph" font-family="Liberation Sans, sans-serif" font-size="353" font-weight="400"><tspan class="prefix__TextPosition" x="16254" y="10450"><tspan fill="#4D80AA">Prepare View</tspan></tspan></tspan></text></g><g class="prefix__com_sun_star_drawing_CustomShape"><path class="prefix__BoundingBox" fill="none" d="M14235 7735h1531v1531h-1531z"/><path fill="#97B5CF" d="M15000 9250h-750V7750h1500v1500h-750z"/><path fill="none" stroke="#4D80AA" stroke-width="30" d="M15000 9250h-750V7750h1500v1500h-750z"/></g><g class="prefix__com_sun_star_drawing_CustomShape"><path class="prefix__BoundingBox" fill="none" d="M16985 10735h1531v1531h-1531z"/><path fill="#97B5CF" d="M17750 12250h-750v-1500h1500v1500h-750z"/><path fill="none" stroke="#4D80AA" stroke-width="30" d="M17750 12250h-750v-1500h1500v1500h-750z"/></g><g class="prefix__com_sun_star_drawing_CustomShape"><path class="prefix__BoundingBox" fill="none" d="M11485 10735h1531v1531h-1531z"/><path fill="#97B5CF" d="M12250 12250h-750v-1500h1500v1500h-750z"/><path fill="none" stroke="#4D80AA" stroke-width="30" d="M12250 12250h-750v-1500h1500v1500h-750z"/></g><g class="prefix__com_sun_star_drawing_CustomShape"><path class="prefix__BoundingBox" fill="none" d="M902 10210h2295v2558H902z"/><path fill="#F5F5F5" d="M2872 10238v431h309v1639h-309v431L930 11488l1942-1250z"/><path fill="none" stroke="#B5B5B5" stroke-width="30" stroke-linejoin="miter" d="M2872 10238v431h309v1639h-309v431L930 11488l1942-1250z"/></g><g class="prefix__com_sun_star_drawing_CustomShape"><path class="prefix__BoundingBox" fill="none" d="M1470 10719h1531v1531H1470z"/><path fill="#97B5CF" d="M2235 12234h-750v-1500h1500v1500h-750z"/><path fill="none" stroke="#4D80AA" stroke-width="30" d="M2235 12234h-750v-1500h1500v1500h-750z"/></g><g class="prefix__com_sun_star_drawing_CustomShape"><path class="prefix__BoundingBox" fill="none" d="M11741 2235h3260v6256h-3260z"/><path fill="none" stroke="#77A8D0" stroke-width="30" d="M14051 2250v3251M14051 2753l934 5722"/><text class="prefix__TextShape"><tspan class="prefix__TextParagraph" font-family="Liberation Sans, sans-serif" font-size="282" font-weight="400"><tspan class="prefix__TextPosition" x="11750" y="2633"><tspan fill="#B0B0B0">Request</tspan></tspan></tspan><tspan ooo:numbering-type="bullet-style" class="prefix__ListItem" font-family="Liberation Sans, sans-serif" font-size="282" font-weight="400"><tspan class="prefix__TextPosition" x="11750" y="2881"/><tspan class="prefix__TextPosition" x="12050" y="2951"><tspan fill="#B0B0B0">QueryString</tspan></tspan></tspan><tspan ooo:numbering-type="bullet-style" class="prefix__ListItem" font-family="Liberation Sans, sans-serif" font-size="282" font-weight="400"><tspan class="prefix__TextPosition" x="11750" y="3199"/><tspan class="prefix__TextPosition" x="12050" y="3269"><tspan fill="#B0B0B0">HTTPHeaders</tspan></tspan></tspan><tspan ooo:numbering-type="bullet-style" class="prefix__ListItem" font-family="Liberation Sans, sans-serif" font-size="282" font-weight="400"><tspan class="prefix__TextPosition" x="11750" y="3517"/><tspan class="prefix__TextPosition" x="12050" y="3587"><tspan fill="#B0B0B0">Cookies</tspan></tspan></tspan><tspan ooo:numbering-type="bullet-style" class="prefix__ListItem" font-family="Liberation Sans, sans-serif" font-size="282" font-weight="400"><tspan class="prefix__TextPosition" x="11750" y="3835"/><tspan class="prefix__TextPosition" x="12050" y="3905"><tspan fill="#B0B0B0">Body</tspan></tspan></tspan><tspan class="prefix__TextParagraph" font-family="Liberation Sans, sans-serif" font-size="282" font-weight="400"><tspan class="prefix__TextPosition" x="11750" y="4223"><tspan fill="#B0B0B0">EndPoint</tspan></tspan></tspan><tspan class="prefix__TextParagraph" font-family="Liberation Sans, sans-serif" font-size="282" font-weight="400"><tspan class="prefix__TextPosition" x="11750" y="4541"><tspan fill="#B0B0B0">ControllerContext</tspan></tspan></tspan><tspan class="prefix__TextParagraph" font-family="Liberation Sans, sans-serif" font-size="282" font-weight="400"><tspan class="prefix__TextPosition" x="11750" y="4859"><tspan fill="#B0B0B0">ActionDescription</tspan></tspan></tspan><tspan class="prefix__TextParagraph" font-family="Liberation Sans, sans-serif" font-size="282" font-weight="400"><tspan class="prefix__TextPosition" x="11750" y="5177"><tspan fill="#B0B0B0">Arguments</tspan></tspan></tspan><tspan class="prefix__TextParagraph" font-family="Liberation Sans, sans-serif" font-size="282" font-weight="400"><tspan class="prefix__TextPosition" x="11750" y="5495"><tspan fill="#4D80AA">Data</tspan></tspan></tspan></text><g class="prefix__BulletChars"><use transform="matrix(126 0 0 126 11750 2881)" xlink:href="#prefix__c"/><use transform="matrix(126 0 0 126 11750 3199)" xlink:href="#prefix__c"/><use transform="matrix(126 0 0 126 11750 3517)" xlink:href="#prefix__c"/><use transform="matrix(126 0 0 126 11750 3835)" xlink:href="#prefix__c"/></g></g><g class="prefix__com_sun_star_drawing_CustomShape"><path class="prefix__BoundingBox" fill="none" d="M14491 11489h3226v7028h-3226z"/><path fill="none" stroke="#77A8D0" stroke-width="30" d="M17014 14500v4001M17014 15124l687-3620"/><text class="prefix__TextShape"><tspan class="prefix__TextParagraph" font-family="Liberation Sans, sans-serif" font-size="282" font-weight="400"><tspan class="prefix__TextPosition" x="14500" y="14883"><tspan fill="#B0B0B0">Request</tspan></tspan></tspan><tspan ooo:numbering-type="bullet-style" class="prefix__ListItem" font-family="Liberation Sans, sans-serif" font-size="282" font-weight="400"><tspan class="prefix__TextPosition" x="14500" y="15131"/><tspan class="prefix__TextPosition" x="14800" y="15201"><tspan fill="#B0B0B0">QueryString</tspan></tspan></tspan><tspan ooo:numbering-type="bullet-style" class="prefix__ListItem" font-family="Liberation Sans, sans-serif" font-size="282" font-weight="400"><tspan class="prefix__TextPosition" x="14500" y="15449"/><tspan class="prefix__TextPosition" x="14800" y="15519"><tspan fill="#B0B0B0">HTTPHeaders</tspan></tspan></tspan><tspan ooo:numbering-type="bullet-style" class="prefix__ListItem" font-family="Liberation Sans, sans-serif" font-size="282" font-weight="400"><tspan class="prefix__TextPosition" x="14500" y="15767"/><tspan class="prefix__TextPosition" x="14800" y="15837"><tspan fill="#B0B0B0">Cookies</tspan></tspan></tspan><tspan ooo:numbering-type="bullet-style" class="prefix__ListItem" font-family="Liberation Sans, sans-serif" font-size="282" font-weight="400"><tspan class="prefix__TextPosition" x="14500" y="16085"/><tspan class="prefix__TextPosition" x="14800" y="16155"><tspan fill="#B0B0B0">Body</tspan></tspan></tspan><tspan class="prefix__TextParagraph" font-family="Liberation Sans, sans-serif" font-size="282" font-weight="400"><tspan class="prefix__TextPosition" x="14500" y="16473"><tspan fill="#B0B0B0">EndPoint</tspan></tspan></tspan><tspan class="prefix__TextParagraph" font-family="Liberation Sans, sans-serif" font-size="282" font-weight="400"><tspan class="prefix__TextPosition" x="14500" y="16791"><tspan fill="#B0B0B0">ControllerContext</tspan></tspan></tspan><tspan class="prefix__TextParagraph" font-family="Liberation Sans, sans-serif" font-size="282" font-weight="400"><tspan class="prefix__TextPosition" x="14500" y="17109"><tspan fill="#B0B0B0">ActionDescription</tspan></tspan></tspan><tspan class="prefix__TextParagraph" font-family="Liberation Sans, sans-serif" font-size="282" font-weight="400"><tspan class="prefix__TextPosition" x="14500" y="17427"><tspan fill="#B0B0B0">Arguments</tspan></tspan></tspan><tspan class="prefix__TextParagraph" font-family="Liberation Sans, sans-serif" font-size="282" font-weight="400"><tspan class="prefix__TextPosition" x="14500" y="17745"><tspan fill="#B0B0B0">Data</tspan></tspan></tspan><tspan class="prefix__TextParagraph" font-family="Liberation Sans, sans-serif" font-size="282" font-weight="400"><tspan class="prefix__TextPosition" x="14500" y="18063"><tspan fill="#4D80AA">Result</tspan></tspan></tspan></text><g class="prefix__BulletChars"><use transform="matrix(126 0 0 126 14500 15131)" xlink:href="#prefix__c"/><use transform="matrix(126 0 0 126 14500 15449)" xlink:href="#prefix__c"/><use transform="matrix(126 0 0 126 14500 15767)" xlink:href="#prefix__c"/><use transform="matrix(126 0 0 126 14500 16085)" xlink:href="#prefix__c"/></g></g><g class="prefix__com_sun_star_drawing_CustomShape"><path class="prefix__BoundingBox" fill="none" d="M8991 11489h3200v7028H8991z"/><path fill="none" stroke="#77A8D0" stroke-width="30" d="M11550 14500v4001M11550 15109l625-3605"/><text class="prefix__TextShape"><tspan class="prefix__TextParagraph" font-family="Liberation Sans, sans-serif" font-size="282" font-weight="400"><tspan class="prefix__TextPosition" x="9000" y="14883"><tspan fill="#B0B0B0">Request</tspan></tspan></tspan><tspan ooo:numbering-type="bullet-style" class="prefix__ListItem" font-family="Liberation Sans, sans-serif" font-size="282" font-weight="400"><tspan class="prefix__TextPosition" x="9000" y="15131"/><tspan class="prefix__TextPosition" x="9300" y="15201"><tspan fill="#B0B0B0">QueryString</tspan></tspan></tspan><tspan ooo:numbering-type="bullet-style" class="prefix__ListItem" font-family="Liberation Sans, sans-serif" font-size="282" font-weight="400"><tspan class="prefix__TextPosition" x="9000" y="15449"/><tspan class="prefix__TextPosition" x="9300" y="15519"><tspan fill="#B0B0B0">HTTPHeaders</tspan></tspan></tspan><tspan ooo:numbering-type="bullet-style" class="prefix__ListItem" font-family="Liberation Sans, sans-serif" font-size="282" font-weight="400"><tspan class="prefix__TextPosition" x="9000" y="15767"/><tspan class="prefix__TextPosition" x="9300" y="15837"><tspan fill="#B0B0B0">Cookies</tspan></tspan></tspan><tspan ooo:numbering-type="bullet-style" class="prefix__ListItem" font-family="Liberation Sans, sans-serif" font-size="282" font-weight="400"><tspan class="prefix__TextPosition" x="9000" y="16085"/><tspan class="prefix__TextPosition" x="9300" y="16155"><tspan fill="#B0B0B0">Body</tspan></tspan></tspan><tspan class="prefix__TextParagraph" font-family="Liberation Sans, sans-serif" font-size="282" font-weight="400"><tspan class="prefix__TextPosition" x="9000" y="16473"><tspan fill="#B0B0B0">EndPoint</tspan></tspan></tspan><tspan class="prefix__TextParagraph" font-family="Liberation Sans, sans-serif" font-size="282" font-weight="400"><tspan class="prefix__TextPosition" x="9000" y="16791"><tspan fill="#B0B0B0">ControllerContext</tspan></tspan></tspan><tspan class="prefix__TextParagraph" font-family="Liberation Sans, sans-serif" font-size="282" font-weight="400"><tspan class="prefix__TextPosition" x="9000" y="17109"><tspan fill="#B0B0B0">ActionDescription</tspan></tspan></tspan><tspan class="prefix__TextParagraph" font-family="Liberation Sans, sans-serif" font-size="282" font-weight="400"><tspan class="prefix__TextPosition" x="9000" y="17427"><tspan fill="#B0B0B0">Arguments</tspan></tspan></tspan><tspan class="prefix__TextParagraph" font-family="Liberation Sans, sans-serif" font-size="282" font-weight="400"><tspan class="prefix__TextPosition" x="9000" y="17745"><tspan fill="#B0B0B0">Data</tspan></tspan></tspan><tspan class="prefix__TextParagraph" font-family="Liberation Sans, sans-serif" font-size="282" font-weight="400"><tspan class="prefix__TextPosition" x="9000" y="18063"><tspan fill="#B0B0B0">Result</tspan></tspan></tspan><tspan class="prefix__TextParagraph" font-family="Liberation Sans, sans-serif" font-size="282" font-weight="400"><tspan class="prefix__TextPosition" x="9000" y="18381"><tspan fill="#4D80AA">View data</tspan></tspan></tspan></text><g class="prefix__BulletChars"><use transform="matrix(126 0 0 126 9000 15131)" xlink:href="#prefix__c"/><use transform="matrix(126 0 0 126 9000 15449)" xlink:href="#prefix__c"/><use transform="matrix(126 0 0 126 9000 15767)" xlink:href="#prefix__c"/><use transform="matrix(126 0 0 126 9000 16085)" xlink:href="#prefix__c"/></g></g><g class="prefix__com_sun_star_drawing_CustomShape"><path class="prefix__BoundingBox" fill="none" d="M2154 11457h3714v7060H2154z"/><path fill="none" stroke="#77A8D0" stroke-width="30" d="M3480 14500v4001M3480 15250l-1310-3778"/><text class="prefix__TextShape"><tspan class="prefix__TextParagraph" font-family="Liberation Sans, sans-serif" font-size="282" font-weight="400"><tspan class="prefix__TextPosition" x="3750" y="14883"><tspan fill="#4D80AA">Response</tspan></tspan></tspan><tspan ooo:numbering-type="bullet-style" class="prefix__ListItem" font-family="Liberation Sans, sans-serif" font-size="282" font-weight="400"><tspan class="prefix__TextPosition" x="3750" y="15131"/><tspan class="prefix__TextPosition" x="4050" y="15201"><tspan fill="#4D80AA">HTTPHeaders</tspan></tspan></tspan><tspan ooo:numbering-type="bullet-style" class="prefix__ListItem" font-family="Liberation Sans, sans-serif" font-size="282" font-weight="400"><tspan class="prefix__TextPosition" x="3750" y="15449"/><tspan class="prefix__TextPosition" x="4050" y="15519"><tspan fill="#4D80AA">Cookies</tspan></tspan></tspan><tspan ooo:numbering-type="bullet-style" class="prefix__ListItem" font-family="Liberation Sans, sans-serif" font-size="282" font-weight="400"><tspan class="prefix__TextPosition" x="3750" y="15767"/><tspan class="prefix__TextPosition" x="4050" y="15837"><tspan fill="#4D80AA">Content</tspan></tspan></tspan></text><g class="prefix__BulletChars"><use transform="matrix(126 0 0 126 3750 15131)" xlink:href="#prefix__c"/><use transform="matrix(126 0 0 126 3750 15449)" xlink:href="#prefix__c"/><use transform="matrix(126 0 0 126 3750 15767)" xlink:href="#prefix__c"/></g></g><g class="prefix__Group"><g class="prefix__com_sun_star_drawing_TextShape"><path class="prefix__BoundingBox" fill="none" d="M894 1009h19107v768H894z"/><text class="prefix__TextShape"><tspan class="prefix__TextParagraph" font-family="Noto Sans, sans-serif" font-size="564" font-weight="400"><tspan class="prefix__TextPosition" x="894" y="1610"><tspan fill="#4D80AA">Конвейер</tspan></tspan></tspan></text></g><g class="prefix__com_sun_star_drawing_LineShape"><path class="prefix__BoundingBox" fill="none" d="M878 1736h19138v31H878z"/><path fill="none" stroke="#4D80AA" stroke-width="30" d="M894 1751h19106"/></g></g></g></svg>