<svg version="1.2" width="596.447" height="463.635" viewBox="985 1000 15781 12267" preserveAspectRatio="xMidYMid" fill-rule="evenodd" stroke-width="28.222" stroke-linejoin="round" xmlns="http://www.w3.org/2000/svg"><g class="prefix__Page"><g class="prefix__com_sun_star_drawing_LineShape"><path class="prefix__BoundingBox" fill="none" d="M8985 3985h31v7531h-31z"/><path fill="none" stroke="#B5B5B5" stroke-width="30" d="M9000 4000v7500"/></g><g class="prefix__com_sun_star_drawing_LineShape"><path class="prefix__BoundingBox" fill="none" d="M12985 3985h31v7531h-31z"/><path fill="none" stroke="#B5B5B5" stroke-width="30" d="M13000 4000v7500"/></g><g class="prefix__Group"><g class="prefix__com_sun_star_drawing_CustomShape"><path class="prefix__BoundingBox" fill="none" d="M5485 4484h3032v2783H5485z"/><path fill="#D9EEFF" d="M5500 4500h3001v2751H5500V4500z"/><path fill="none" stroke="#77A8D0" stroke-width="30" d="M5500 4500h3001v2751H5500V4500h0z"/><text class="prefix__TextShape"><tspan class="prefix__TextParagraph" font-family="Liberation Sans, sans-serif" font-size="352" font-weight="400"><tspan class="prefix__TextPosition" x="5750" y="4943"><tspan fill="#4D80AA">HTML Result</tspan></tspan></tspan></text></g><g class="prefix__com_sun_star_drawing_TableShape"><path class="prefix__BoundingBox" fill="none" d="M5712 5314h2574v1742H5712z"/><text class="prefix__TextShape"><tspan class="prefix__TextParagraph" font-family="Liberation Sans, sans-serif" font-size="282" font-weight="400"><tspan class="prefix__TextPosition" x="5964" y="5704"><tspan fill="#4D80AA">Template 1</tspan></tspan></tspan></text><text class="prefix__TextShape"><tspan class="prefix__TextParagraph" font-family="Liberation Sans, sans-serif" font-size="282" font-weight="400"><tspan class="prefix__TextPosition" x="5964" y="6283"><tspan fill="#4D80AA">...</tspan></tspan></tspan></text><text class="prefix__TextShape"><tspan class="prefix__TextParagraph" font-family="Liberation Sans, sans-serif" font-size="282" font-weight="400"><tspan class="prefix__TextPosition" x="5964" y="6862"><tspan fill="#4D80AA">Template N</tspan></tspan></tspan></text><path fill="none" stroke="#729FCF" stroke-width="18" d="M5705 5316h2587M5714 5307v1755M8283 5307v1755M5705 5895h2587M5705 6474h2587M5705 7053h2587"/></g></g><g class="prefix__com_sun_star_drawing_ConnectorShape"><path class="prefix__BoundingBox" fill="none" d="M4485 5874h1016v2517H4485z"/><path fill="none" stroke="#4D80AA" stroke-width="30" d="M4500 8375l862-2154"/><path fill="#4D80AA" d="M5466 6259l19 31 15-415-275 311 34-9 37-3 39 3 38 11 36 18 31 24 26 29z"/></g><g class="prefix__Group"><g class="prefix__com_sun_star_drawing_CustomShape"><path class="prefix__BoundingBox" fill="none" d="M1485 6984h3032v2783H1485z"/><path fill="#D9EEFF" d="M1500 7000h3001v2751H1500V7000z"/><path fill="none" stroke="#77A8D0" stroke-width="30" d="M1500 7000h3001v2751H1500V7000h0z"/><text class="prefix__TextShape"><tspan class="prefix__TextParagraph" font-family="Liberation Sans, sans-serif" font-size="352" font-weight="400"><tspan class="prefix__TextPosition" x="1750" y="7443"><tspan fill="#4D80AA">Data Model</tspan></tspan></tspan></text></g><g class="prefix__com_sun_star_drawing_TableShape"><path class="prefix__BoundingBox" fill="none" d="M1712 7814h2574v1742H1712z"/><text class="prefix__TextShape"><tspan class="prefix__TextParagraph" font-family="Liberation Sans, sans-serif" font-size="282" font-weight="400"><tspan class="prefix__TextPosition" x="1964" y="8204"><tspan fill="#4D80AA">Property 1</tspan></tspan></tspan></text><text class="prefix__TextShape"><tspan class="prefix__TextParagraph" font-family="Liberation Sans, sans-serif" font-size="282" font-weight="400"><tspan class="prefix__TextPosition" x="1964" y="8783"><tspan fill="#4D80AA">...</tspan></tspan></tspan></text><text class="prefix__TextShape"><tspan class="prefix__TextParagraph" font-family="Liberation Sans, sans-serif" font-size="282" font-weight="400"><tspan class="prefix__TextPosition" x="1964" y="9362"><tspan fill="#4D80AA">Property N</tspan></tspan></tspan></text><path fill="none" stroke="#729FCF" stroke-width="18" d="M1705 7816h2587M1714 7807v1755M4283 7807v1755M1705 8395h2587M1705 8974h2587M1705 9553h2587"/></g></g><g class="prefix__Group"><g class="prefix__com_sun_star_drawing_CustomShape"><path class="prefix__BoundingBox" fill="none" d="M5485 9234h3032v2783H5485z"/><path fill="#D9EEFF" d="M5500 9250h3001v2751H5500V9250z"/><path fill="none" stroke="#77A8D0" stroke-width="30" d="M5500 9250h3001v2751H5500V9250h0z"/><text class="prefix__TextShape"><tspan class="prefix__TextParagraph" font-family="Liberation Sans, sans-serif" font-size="352" font-weight="400"><tspan class="prefix__TextPosition" x="5750" y="9693"><tspan fill="#4D80AA">JSON Result</tspan></tspan></tspan></text></g><g class="prefix__com_sun_star_drawing_TableShape"><path class="prefix__BoundingBox" fill="none" d="M5712 10064h2574v1742H5712z"/><text class="prefix__TextShape"><tspan class="prefix__TextParagraph" font-family="Liberation Sans, sans-serif" font-size="282" font-weight="400"><tspan class="prefix__TextPosition" x="5964" y="10454"><tspan fill="#4D80AA">Template 1</tspan></tspan></tspan></text><text class="prefix__TextShape"><tspan class="prefix__TextParagraph" font-family="Liberation Sans, sans-serif" font-size="282" font-weight="400"><tspan class="prefix__TextPosition" x="5964" y="11033"><tspan fill="#4D80AA">...</tspan></tspan></tspan></text><text class="prefix__TextShape"><tspan class="prefix__TextParagraph" font-family="Liberation Sans, sans-serif" font-size="282" font-weight="400"><tspan class="prefix__TextPosition" x="5964" y="11612"><tspan fill="#4D80AA">Template N</tspan></tspan></tspan></text><path fill="none" stroke="#729FCF" stroke-width="18" d="M5705 10066h2587M5714 10057v1755M8283 10057v1755M5705 10645h2587M5705 11224h2587M5705 11803h2587"/></g></g><g class="prefix__com_sun_star_drawing_ConnectorShape"><path class="prefix__BoundingBox" fill="none" d="M4485 8360h1017v2266H4485z"/><path fill="none" stroke="#4D80AA" stroke-width="30" d="M4500 8375l849 1910"/><path fill="#4D80AA" d="M5249 10333l-36-9 287 301-31-414-17 30-24 29-29 26-35 20-37 13-40 5-38-1z"/></g><g class="prefix__com_sun_star_drawing_CustomShape"><path class="prefix__BoundingBox" fill="none" d="M1485 4485h3031v1281H1485z"/><path fill="#F5F5F5" d="M3000 5750H1500V4500h3000v1250H3000z"/><path fill="none" stroke="#B5B5B5" stroke-width="30" d="M3000 5750H1500V4500h3000v1250H3000z"/><text class="prefix__TextShape"><tspan class="prefix__TextParagraph" font-family="Liberation Sans, sans-serif" font-size="352" font-weight="400"><tspan class="prefix__TextPosition" x="1794" y="5246"><tspan fill="#B0B0B0">ModelMetadata</tspan></tspan></tspan></text></g><g class="prefix__com_sun_star_drawing_ConnectorShape"><path class="prefix__BoundingBox" fill="none" d="M4485 5110h1017v766H4485z"/><path fill="none" stroke="#B0B0B0" stroke-width="30" d="M4500 5125l702 527"/><path fill="#B0B0B0" d="M5138 5742l-35 10 397 123-229-347v36l-7 37-13 36-20 34-27 30-32 24-34 17z"/></g><g class="prefix__com_sun_star_drawing_CustomShape"><path class="prefix__BoundingBox" fill="none" d="M1485 10735h3031v1281H1485z"/><path fill="#F5F5F5" d="M3000 12000H1500v-1250h3000v1250H3000z"/><path fill="none" stroke="#B5B5B5" stroke-width="30" d="M3000 12000H1500v-1250h3000v1250H3000z"/><text class="prefix__TextShape"><tspan class="prefix__TextParagraph" font-family="Liberation Sans, sans-serif" font-size="352" font-weight="400"><tspan class="prefix__TextPosition" x="1790" y="11496"><tspan fill="#B0B0B0">JSONAttributes</tspan></tspan></tspan></text></g><g class="prefix__com_sun_star_drawing_ConnectorShape"><path class="prefix__BoundingBox" fill="none" d="M4485 10624h1016v767H4485z"/><path fill="none" stroke="#B0B0B0" stroke-width="30" d="M4500 11375l702-527"/><path fill="#B0B0B0" d="M5271 10935v37l229-347-397 123 34 10 34 16 31 23 27 29 21 34 14 37 7 38z"/></g><g class="prefix__Group"><g class="prefix__com_sun_star_drawing_CustomShape"><path class="prefix__BoundingBox" fill="none" d="M9485 4484h3033v2783H9485z"/><path fill="#D9EEFF" d="M9500 4500h3001v2751H9500V4500z"/><path fill="none" stroke="#77A8D0" stroke-width="30" d="M9500 4500h3001v2751H9500V4500h0z"/><text class="prefix__TextShape"><tspan class="prefix__TextParagraph" font-family="Liberation Sans, sans-serif" font-size="352" font-weight="400"><tspan class="prefix__TextPosition" x="9750" y="4943"><tspan fill="#4D80AA">HTTP Body</tspan></tspan></tspan></text></g><g class="prefix__com_sun_star_drawing_TableShape"><path class="prefix__BoundingBox" fill="none" d="M9715 5303h2574v1742H9715z"/><text class="prefix__TextShape"><tspan class="prefix__TextParagraph" font-family="Liberation Sans, sans-serif" font-size="282" font-weight="400"><tspan class="prefix__TextPosition" x="9967" y="5693"><tspan fill="#4D80AA">name1=value1</tspan></tspan></tspan></text><text class="prefix__TextShape"><tspan class="prefix__TextParagraph" font-family="Liberation Sans, sans-serif" font-size="282" font-weight="400"><tspan class="prefix__TextPosition" x="9967" y="6272"><tspan fill="#4D80AA">...</tspan></tspan></tspan></text><text class="prefix__TextShape"><tspan class="prefix__TextParagraph" font-family="Liberation Sans, sans-serif" font-size="282" font-weight="400"><tspan class="prefix__TextPosition" x="9967" y="6851"><tspan fill="#4D80AA">nameN=valueN</tspan></tspan></tspan></text><path fill="none" stroke="#729FCF" stroke-width="18" d="M9708 5305h2587M9717 5296v1755M12286 5296v1755M9708 5884h2587M9708 6463h2587M9708 7042h2587"/></g></g><g class="prefix__com_sun_star_drawing_ConnectorShape"><path class="prefix__BoundingBox" fill="none" d="M8485 5735h1016v281H8485z"/><path fill="none" stroke="#4D80AA" stroke-width="30" d="M8500 5875h628"/><path fill="#4D80AA" d="M9131 5986l-22 29 391-140-391-140 21 28 17 34 11 37 4 39-3 40-11 38-17 35z"/></g><g class="prefix__Group"><g class="prefix__com_sun_star_drawing_CustomShape"><path class="prefix__BoundingBox" fill="none" d="M9485 9234h3033v2783H9485z"/><path fill="#D9EEFF" d="M9500 9250h3001v2751H9500V9250z"/><path fill="none" stroke="#77A8D0" stroke-width="30" d="M9500 9250h3001v2751H9500V9250h0z"/><text class="prefix__TextShape"><tspan class="prefix__TextParagraph" font-family="Liberation Sans, sans-serif" font-size="352" font-weight="400"><tspan class="prefix__TextPosition" x="9750" y="9693"><tspan fill="#4D80AA">JSON</tspan></tspan></tspan></text></g><g class="prefix__com_sun_star_drawing_TableShape"><path class="prefix__BoundingBox" fill="none" d="M9638 10059h2574v1742H9638z"/><text class="prefix__TextShape"><tspan class="prefix__TextParagraph" font-family="Liberation Sans, sans-serif" font-size="282" font-weight="400"><tspan class="prefix__TextPosition" x="9890" y="10449"><tspan fill="#4D80AA">name1:value1</tspan></tspan></tspan></text><text class="prefix__TextShape"><tspan class="prefix__TextParagraph" font-family="Liberation Sans, sans-serif" font-size="282" font-weight="400"><tspan class="prefix__TextPosition" x="9890" y="11028"><tspan fill="#4D80AA">...</tspan></tspan></tspan></text><text class="prefix__TextShape"><tspan class="prefix__TextParagraph" font-family="Liberation Sans, sans-serif" font-size="282" font-weight="400"><tspan class="prefix__TextPosition" x="9890" y="11607"><tspan fill="#4D80AA">nameN:valueN</tspan></tspan></tspan></text><path fill="none" stroke="#729FCF" stroke-width="18" d="M9631 10061h2587M9640 10052v1755M12209 10052v1755M9631 10640h2587M9631 11219h2587M9631 11798h2587"/></g></g><g class="prefix__com_sun_star_drawing_ConnectorShape"><path class="prefix__BoundingBox" fill="none" d="M8485 10485h1016v281H8485z"/><path fill="none" stroke="#4D80AA" stroke-width="30" d="M8500 10625h628"/><path fill="#4D80AA" d="M9131 10736l-22 29 391-140-391-140 21 28 17 34 11 37 4 39-3 40-11 38-17 35z"/></g><g class="prefix__Group"><g class="prefix__com_sun_star_drawing_CustomShape"><path class="prefix__BoundingBox" fill="none" d="M13485 6984h3032v2783h-3032z"/><path fill="#D9EEFF" d="M13500 7000h3001v2751h-3001V7000z"/><path fill="none" stroke="#77A8D0" stroke-width="30" d="M13500 7000h3001v2751h-3001V7000h0z"/><text class="prefix__TextShape"><tspan class="prefix__TextParagraph" font-family="Liberation Sans, sans-serif" font-size="352" font-weight="400"><tspan class="prefix__TextPosition" x="13750" y="7443"><tspan fill="#4D80AA">Bind Model</tspan></tspan></tspan></text></g><g class="prefix__com_sun_star_drawing_TableShape"><path class="prefix__BoundingBox" fill="none" d="M13712 7814h2574v1742h-2574z"/><text class="prefix__TextShape"><tspan class="prefix__TextParagraph" font-family="Liberation Sans, sans-serif" font-size="282" font-weight="400"><tspan class="prefix__TextPosition" x="13964" y="8204"><tspan fill="#4D80AA">Property 1</tspan></tspan></tspan></text><text class="prefix__TextShape"><tspan class="prefix__TextParagraph" font-family="Liberation Sans, sans-serif" font-size="282" font-weight="400"><tspan class="prefix__TextPosition" x="13964" y="8783"><tspan fill="#4D80AA">...</tspan></tspan></tspan></text><text class="prefix__TextShape"><tspan class="prefix__TextParagraph" font-family="Liberation Sans, sans-serif" font-size="282" font-weight="400"><tspan class="prefix__TextPosition" x="13964" y="9362"><tspan fill="#4D80AA">Property N</tspan></tspan></tspan></text><path fill="none" stroke="#729FCF" stroke-width="18" d="M13705 7816h2587M13714 7807v1755M16283 7807v1755M13705 8395h2587M13705 8974h2587M13705 9553h2587"/></g></g><g class="prefix__com_sun_star_drawing_ConnectorShape"><path class="prefix__BoundingBox" fill="none" d="M12485 5860h1017v2516h-1017z"/><path fill="none" stroke="#4D80AA" stroke-width="30" d="M12500 5875l862 2154"/><path fill="#4D80AA" d="M13260 8073l-35-9 275 311-15-415-19 30-25 28-29 24-36 19-38 12-40 3-38-3z"/></g><g class="prefix__com_sun_star_drawing_ConnectorShape"><path class="prefix__BoundingBox" fill="none" d="M12485 8374h1016v2267h-1016z"/><path fill="none" stroke="#4D80AA" stroke-width="30" d="M12500 10625l849-1910"/><path fill="#4D80AA" d="M13451 8757l18 32 31-414-287 301 35-8 37-2 38 5 38 12 35 19 30 26 25 29z"/></g><g class="prefix__com_sun_star_drawing_CustomShape"><path class="prefix__BoundingBox" fill="none" d="M13485 10735h3031v1281h-3031z"/><path fill="#F5F5F5" d="M15000 12000h-1500v-1250h3000v1250h-1500z"/><path fill="none" stroke="#B5B5B5" stroke-width="30" d="M15000 12000h-1500v-1250h3000v1250h-1500z"/><text class="prefix__TextShape"><tspan class="prefix__TextParagraph" font-family="Liberation Sans, sans-serif" font-size="352" font-weight="400"><tspan class="prefix__TextPosition" x="13861" y="11299"><tspan fill="#B0B0B0">BindAttributes/</tspan></tspan></tspan><tspan class="prefix__TextParagraph" font-family="Liberation Sans, sans-serif" font-size="352" font-weight="400"><tspan class="prefix__TextPosition" x="14405" y="11693"><tspan fill="#B0B0B0">Binders</tspan></tspan></tspan></text></g><g class="prefix__com_sun_star_drawing_ConnectorShape"><path class="prefix__BoundingBox" fill="none" d="M14860 9750h281v1016h-281z"/><path fill="none" stroke="#B0B0B0" stroke-width="30" d="M15000 10750v-628"/><path fill="#B0B0B0" d="M15111 10119l29 22-140-391-140 391 28-21 34-17 37-11 39-4 40 3 38 11 35 17z"/></g><g class="prefix__com_sun_star_drawing_ConnectorShape"><path class="prefix__BoundingBox" fill="none" d="M985 8235h15781v4031H985z"/><path fill="none" stroke="#4D80AA" stroke-width="30" d="M16500 8375h250v3875H1000V8375h128"/><path fill="#4D80AA" d="M1131 8486l-22 29 391-140-391-140 21 28 17 34 11 37 4 39-3 40-11 38-17 35z"/></g><g class="prefix__com_sun_star_drawing_ConnectorShape"><path class="prefix__BoundingBox" fill="none" d="M8485 5860h1073v4766H8485z"/><path fill="none" stroke="#B0B0B0" stroke-width="30" d="M8500 5875l923 4385"/><path fill="#B0B0B0" d="M9316 10287l-34-16 218 354 56-412-23 27-29 23-34 19-38 12-40 5-39-3-37-9z"/></g><g class="prefix__Group"><g class="prefix__com_sun_star_drawing_TextShape"><path class="prefix__BoundingBox" fill="none" d="M1000 1000h15751v768H1000z"/><text class="prefix__TextShape"><tspan class="prefix__TextParagraph" font-family="Noto Sans, sans-serif" font-size="564" font-weight="400"><tspan class="prefix__TextPosition" x="1000" y="1601"><tspan fill="#4D80AA">Стандартный подход</tspan></tspan></tspan></text></g><g class="prefix__com_sun_star_drawing_LineShape"><path class="prefix__BoundingBox" fill="none" d="M985 1735h15781v31H985z"/><path fill="none" stroke="#4D80AA" stroke-width="30" d="M1000 1750h15750"/></g></g><g class="prefix__com_sun_star_drawing_CustomShape"><path class="prefix__BoundingBox" fill="none" d="M8982 2235h2035v1798H8982z"/><path fill="none" stroke="#B5B5B5" stroke-width="30" d="M9634 2250v1001M9634 2958l-637 1059"/><text class="prefix__TextShape"><tspan class="prefix__TextParagraph" font-family="Liberation Sans, sans-serif" font-size="282" font-weight="400"><tspan class="prefix__TextPosition" x="9750" y="2850"><tspan fill="#B0B0B0">Работа UI</tspan></tspan></tspan></text></g><g class="prefix__com_sun_star_drawing_CustomShape"><path class="prefix__BoundingBox" fill="none" d="M12998 2235h3145v1759h-3145z"/><path fill="none" stroke="#B5B5B5" stroke-width="30" d="M13631 2250v1001M13631 2929l-618 1049"/><text class="prefix__TextShape"><tspan class="prefix__TextParagraph" font-family="Liberation Sans, sans-serif" font-size="282" font-weight="400"><tspan class="prefix__TextPosition" x="13762" y="2691"><tspan fill="#B0B0B0">Binding до вызова</tspan></tspan></tspan><tspan class="prefix__TextParagraph" font-family="Liberation Sans, sans-serif" font-size="282" font-weight="400"><tspan class="prefix__TextPosition" x="13762" y="3009"><tspan fill="#B0B0B0">контроллера</tspan></tspan></tspan></text></g><g class="prefix__com_sun_star_drawing_CustomShape"><path class="prefix__BoundingBox" fill="none" d="M9014 12234h3438v1033H9014z"/><path fill="none" stroke="#B5B5B5" stroke-width="30" d="M9637 12500v751M9637 12827l-608-578"/><text class="prefix__TextShape"><tspan class="prefix__TextParagraph" font-family="Liberation Sans, sans-serif" font-size="282" font-weight="400"><tspan class="prefix__TextPosition" x="9750" y="12975"><tspan fill="#B0B0B0">Работа контроллера</tspan></tspan></tspan></text></g></g></svg>