<svg version="1.2" width="719.32" height="397.153" viewBox="985 1008 19032 10508" preserveAspectRatio="xMidYMid" fill-rule="evenodd" stroke-width="28.222" stroke-linejoin="round" xmlns="http://www.w3.org/2000/svg" xmlns:ooo="http://xml.openoffice.org/svg/export" xmlns:xlink="http://www.w3.org/1999/xlink"><defs class="prefix__EmbeddedBulletChars"><path d="M813 0C632 0 489 54 383 161 276 268 223 411 223 592s53 324 160 431c106 107 249 161 430 161 179 0 323-54 432-161 108-107 162-251 162-431s-54-324-162-431C1136 54 992 0 813 0z" transform="scale(.00049 -.00049)" id="prefix__a"/></defs><g class="prefix__Page"><g class="prefix__Group"><g class="prefix__com_sun_star_drawing_CustomShape"><path class="prefix__BoundingBox" fill="none" d="M4985 6235h3032v2782H4985z"/><path fill="#D9EEFF" d="M5000 6250h3001v2751H5000V6250z"/><path fill="none" stroke="#77A8D0" stroke-width="30" d="M5000 6250h3001v2751H5000V6250h0z"/><text class="prefix__TextShape"><tspan class="prefix__TextParagraph" font-family="Liberation Sans, sans-serif" font-size="352" font-weight="400"><tspan class="prefix__TextPosition" x="5250" y="6693"><tspan fill="#4D80AA">Form Model</tspan></tspan></tspan></text></g><g class="prefix__com_sun_star_drawing_TableShape"><path class="prefix__BoundingBox" fill="none" d="M5212 7064h2574v1741H5212z"/><path fill="#D9EEFF" d="M5214 7066h2569v579H5214v-579z"/><text class="prefix__TextShape"><tspan class="prefix__TextParagraph" font-family="Liberation Sans, sans-serif" font-size="282" font-weight="400"><tspan class="prefix__TextPosition" x="5464" y="7449"><tspan fill="#4D80AA">Element 1</tspan></tspan></tspan></text><path fill="#D9EEFF" d="M5214 7645h2569v579H5214v-579z"/><text class="prefix__TextShape"><tspan class="prefix__TextParagraph" font-family="Liberation Sans, sans-serif" font-size="282" font-weight="400"><tspan class="prefix__TextPosition" x="5464" y="8028"><tspan fill="#4D80AA">...</tspan></tspan></tspan></text><path fill="#D9EEFF" d="M5214 8224h2569v578H5214v-578z"/><text class="prefix__TextShape"><tspan class="prefix__TextParagraph" font-family="Liberation Sans, sans-serif" font-size="282" font-weight="400"><tspan class="prefix__TextPosition" x="5464" y="8607"><tspan fill="#4D80AA">Element N</tspan></tspan></tspan></text><path fill="none" stroke="#729FCF" stroke-width="18" d="M5205 7066h2587M5214 7057v1754M7783 7057v1754M5205 7645h2587M5205 8224h2587M5205 8802h2587"/></g></g><g class="prefix__Group"><g class="prefix__com_sun_star_drawing_CustomShape"><path class="prefix__BoundingBox" fill="none" d="M985 6235h3033v2782H985z"/><path fill="#D9EEFF" d="M1000 6250h3001v2751H1000V6250z"/><path fill="none" stroke="#77A8D0" stroke-width="30" d="M1000 6250h3001v2751H1000V6250h0z"/><text class="prefix__TextShape"><tspan class="prefix__TextParagraph" font-family="Liberation Sans, sans-serif" font-size="352" font-weight="400"><tspan class="prefix__TextPosition" x="1250" y="6693"><tspan fill="#4D80AA">Data Model</tspan></tspan></tspan></text></g><g class="prefix__com_sun_star_drawing_TableShape"><path class="prefix__BoundingBox" fill="none" d="M1212 7064h2574v1742H1212z"/><path fill="#D9EEFF" d="M1214 7066h2569v579H1214v-579z"/><text class="prefix__TextShape"><tspan class="prefix__TextParagraph" font-family="Liberation Sans, sans-serif" font-size="282" font-weight="400"><tspan class="prefix__TextPosition" x="1464" y="7449"><tspan fill="#4D80AA">Property 1</tspan></tspan></tspan></text><path fill="#D9EEFF" d="M1214 7645h2569v579H1214v-579z"/><text class="prefix__TextShape"><tspan class="prefix__TextParagraph" font-family="Liberation Sans, sans-serif" font-size="282" font-weight="400"><tspan class="prefix__TextPosition" x="1464" y="8028"><tspan fill="#4D80AA">...</tspan></tspan></tspan></text><path fill="#D9EEFF" d="M1214 8224h2569v579H1214v-579z"/><text class="prefix__TextShape"><tspan class="prefix__TextParagraph" font-family="Liberation Sans, sans-serif" font-size="282" font-weight="400"><tspan class="prefix__TextPosition" x="1464" y="8607"><tspan fill="#4D80AA">Property N</tspan></tspan></tspan></text><path fill="none" stroke="#729FCF" stroke-width="18" d="M1205 7066h2587M1214 7057v1755M3783 7057v1755M1205 7645h2587M1205 8224h2587M1205 8803h2587"/></g></g><g class="prefix__Group"><g class="prefix__com_sun_star_drawing_CustomShape"><path class="prefix__BoundingBox" fill="none" d="M8985 3985h3032v2782H8985z"/><path fill="#D9EEFF" d="M9000 4000h3001v2751H9000V4000z"/><path fill="none" stroke="#77A8D0" stroke-width="30" d="M9000 4000h3001v2751H9000V4000h0z"/><text class="prefix__TextShape"><tspan class="prefix__TextParagraph" font-family="Liberation Sans, sans-serif" font-size="352" font-weight="400"><tspan class="prefix__TextPosition" x="9250" y="4443"><tspan fill="#4D80AA">HTML Result</tspan></tspan></tspan></text></g><g class="prefix__com_sun_star_drawing_TableShape"><path class="prefix__BoundingBox" fill="none" d="M9212 4814h2574v1742H9212z"/><text class="prefix__TextShape"><tspan class="prefix__TextParagraph" font-family="Liberation Sans, sans-serif" font-size="282" font-weight="400"><tspan class="prefix__TextPosition" x="9464" y="5204"><tspan fill="#4D80AA">Template 1</tspan></tspan></tspan></text><text class="prefix__TextShape"><tspan class="prefix__TextParagraph" font-family="Liberation Sans, sans-serif" font-size="282" font-weight="400"><tspan class="prefix__TextPosition" x="9464" y="5783"><tspan fill="#4D80AA">...</tspan></tspan></tspan></text><text class="prefix__TextShape"><tspan class="prefix__TextParagraph" font-family="Liberation Sans, sans-serif" font-size="282" font-weight="400"><tspan class="prefix__TextPosition" x="9464" y="6362"><tspan fill="#4D80AA">Template N</tspan></tspan></tspan></text><path fill="none" stroke="#729FCF" stroke-width="18" d="M9205 4816h2587M9214 4807v1755M11783 4807v1755M9205 5395h2587M9205 5974h2587M9205 6553h2587"/></g></g><g class="prefix__Group"><g class="prefix__com_sun_star_drawing_TextShape"><path class="prefix__BoundingBox" fill="none" d="M1000 1008h19001v768H1000z"/><text class="prefix__TextShape"><tspan class="prefix__TextParagraph" font-family="Noto Sans, sans-serif" font-size="564" font-weight="400"><tspan class="prefix__TextPosition" x="1000" y="1609"><tspan fill="#4D80AA">С использованием FormModel</tspan></tspan></tspan></text></g><g class="prefix__com_sun_star_drawing_LineShape"><path class="prefix__BoundingBox" fill="none" d="M985 1735h19031v31H985z"/><path fill="none" stroke="#4D80AA" stroke-width="30" d="M1000 1750h19000"/></g></g><g class="prefix__Group"><g class="prefix__com_sun_star_drawing_CustomShape"><path class="prefix__BoundingBox" fill="none" d="M8985 8484h3032v2783H8985z"/><path fill="#D9EEFF" d="M9000 8500h3001v2751H9000V8500z"/><path fill="none" stroke="#77A8D0" stroke-width="30" d="M9000 8500h3001v2751H9000V8500h0z"/><text class="prefix__TextShape"><tspan class="prefix__TextParagraph" font-family="Liberation Sans, sans-serif" font-size="352" font-weight="400"><tspan class="prefix__TextPosition" x="9250" y="8943"><tspan fill="#4D80AA">JSON Result</tspan></tspan></tspan></text></g><g class="prefix__com_sun_star_drawing_TableShape"><path class="prefix__BoundingBox" fill="none" d="M9212 9314h2574v1742H9212z"/><path fill="#D9EEFF" d="M9214 9316h2569v579H9214v-579z"/><text class="prefix__TextShape"><tspan class="prefix__TextParagraph" font-family="Liberation Sans, sans-serif" font-size="282" font-weight="400"><tspan class="prefix__TextPosition" x="9464" y="9699"><tspan fill="#4D80AA">Template 1</tspan></tspan></tspan></text><path fill="#D9EEFF" d="M9214 9895h2569v579H9214v-579z"/><text class="prefix__TextShape"><tspan class="prefix__TextParagraph" font-family="Liberation Sans, sans-serif" font-size="282" font-weight="400"><tspan class="prefix__TextPosition" x="9464" y="10278"><tspan fill="#4D80AA">...</tspan></tspan></tspan></text><path fill="#D9EEFF" d="M9214 10474h2569v579H9214v-579z"/><text class="prefix__TextShape"><tspan class="prefix__TextParagraph" font-family="Liberation Sans, sans-serif" font-size="282" font-weight="400"><tspan class="prefix__TextPosition" x="9464" y="10857"><tspan fill="#4D80AA">Template N</tspan></tspan></tspan></text><path fill="none" stroke="#729FCF" stroke-width="18" d="M9205 9316h2587M9214 9307v1755M11783 9307v1755M9205 9895h2587M9205 10474h2587M9205 11053h2587"/></g></g><g class="prefix__Group"><g class="prefix__com_sun_star_drawing_CustomShape"><path class="prefix__BoundingBox" fill="none" d="M12985 3985h3033v2782h-3033z"/><path fill="#D9EEFF" d="M13000 4000h3001v2751h-3001V4000z"/><path fill="none" stroke="#77A8D0" stroke-width="30" d="M13000 4000h3001v2751h-3001V4000h0z"/><text class="prefix__TextShape"><tspan class="prefix__TextParagraph" font-family="Liberation Sans, sans-serif" font-size="352" font-weight="400"><tspan class="prefix__TextPosition" x="13250" y="4443"><tspan fill="#4D80AA">HTTP Body</tspan></tspan></tspan></text></g><g class="prefix__com_sun_star_drawing_TableShape"><path class="prefix__BoundingBox" fill="none" d="M13212 4814h2574v1742h-2574z"/><path fill="#D9EEFF" d="M13214 4816h2569v579h-2569v-579z"/><text class="prefix__TextShape"><tspan class="prefix__TextParagraph" font-family="Liberation Sans, sans-serif" font-size="282" font-weight="400"><tspan class="prefix__TextPosition" x="13464" y="5199"><tspan fill="#4D80AA">name1=value1</tspan></tspan></tspan></text><path fill="#D9EEFF" d="M13214 5395h2569v579h-2569v-579z"/><text class="prefix__TextShape"><tspan class="prefix__TextParagraph" font-family="Liberation Sans, sans-serif" font-size="282" font-weight="400"><tspan class="prefix__TextPosition" x="13464" y="5778"><tspan fill="#4D80AA">...</tspan></tspan></tspan></text><path fill="#D9EEFF" d="M13214 5974h2569v579h-2569v-579z"/><text class="prefix__TextShape"><tspan class="prefix__TextParagraph" font-family="Liberation Sans, sans-serif" font-size="282" font-weight="400"><tspan class="prefix__TextPosition" x="13464" y="6357"><tspan fill="#4D80AA">nameN=valueN</tspan></tspan></tspan></text><path fill="none" stroke="#729FCF" stroke-width="18" d="M13205 4816h2587M13214 4807v1755M15783 4807v1755M13205 5395h2587M13205 5974h2587M13205 6553h2587"/></g></g><g class="prefix__Group"><g class="prefix__com_sun_star_drawing_CustomShape"><path class="prefix__BoundingBox" fill="none" d="M12985 8484h3033v2783h-3033z"/><path fill="#D9EEFF" d="M13000 8500h3001v2751h-3001V8500z"/><path fill="none" stroke="#77A8D0" stroke-width="30" d="M13000 8500h3001v2751h-3001V8500h0z"/><text class="prefix__TextShape"><tspan class="prefix__TextParagraph" font-family="Liberation Sans, sans-serif" font-size="352" font-weight="400"><tspan class="prefix__TextPosition" x="13250" y="8943"><tspan fill="#4D80AA">JSON</tspan></tspan></tspan></text></g><g class="prefix__com_sun_star_drawing_TableShape"><path class="prefix__BoundingBox" fill="none" d="M13195 9309h2574v1742h-2574z"/><path fill="#D9EEFF" d="M13197 9311h2569v579h-2569v-579z"/><text class="prefix__TextShape"><tspan class="prefix__TextParagraph" font-family="Liberation Sans, sans-serif" font-size="282" font-weight="400"><tspan class="prefix__TextPosition" x="13447" y="9694"><tspan fill="#4D80AA">name1: value1</tspan></tspan></tspan></text><path fill="#D9EEFF" d="M13197 9890h2569v579h-2569v-579z"/><text class="prefix__TextShape"><tspan class="prefix__TextParagraph" font-family="Liberation Sans, sans-serif" font-size="282" font-weight="400"><tspan class="prefix__TextPosition" x="13447" y="10273"><tspan fill="#4D80AA">...</tspan></tspan></tspan></text><path fill="#D9EEFF" d="M13197 10469h2569v579h-2569v-579z"/><text class="prefix__TextShape"><tspan class="prefix__TextParagraph" font-family="Liberation Sans, sans-serif" font-size="282" font-weight="400"><tspan class="prefix__TextPosition" x="13447" y="10852"><tspan fill="#4D80AA">nameN: valueN</tspan></tspan></tspan></text><path fill="none" stroke="#729FCF" stroke-width="18" d="M13188 9311h2587M13197 9302v1755M15766 9302v1755M13188 9890h2587M13188 10469h2587M13188 11048h2587"/></g></g><g class="prefix__com_sun_star_drawing_ConnectorShape"><path class="prefix__BoundingBox" fill="none" d="M4000 7485h1001v281H4000z"/><path fill="none" stroke="#4D80AA" stroke-width="30" d="M4346 7625h282"/><path fill="#4D80AA" d="M4343 7522l20-27-363 130 363 130-19-26-16-31-11-34-3-38 3-37 10-35 16-32zM4631 7736l-22 29 391-140-391-140 21 28 17 34 11 37 4 39-3 40-11 38-17 35z"/></g><g class="prefix__com_sun_star_drawing_ConnectorShape"><path class="prefix__BoundingBox" fill="none" d="M7985 5374h1016v2267H7985z"/><path fill="none" stroke="#4D80AA" stroke-width="30" d="M8000 7625l849-1910"/><path fill="#4D80AA" d="M8951 5757l18 32 31-414-287 301 35-8 37-2 38 5 38 12 35 19 30 26 25 29z"/></g><g class="prefix__com_sun_star_drawing_ConnectorShape"><path class="prefix__BoundingBox" fill="none" d="M7985 7610h1017v2266H7985z"/><path fill="none" stroke="#4D80AA" stroke-width="30" d="M8000 7625l849 1910"/><path fill="#4D80AA" d="M8749 9583l-36-9 287 301-31-414-17 30-24 29-29 26-35 20-37 13-40 5-38-1z"/></g><g class="prefix__com_sun_star_drawing_ConnectorShape"><path class="prefix__BoundingBox" fill="none" d="M11985 5235h1016v281h-1016z"/><path fill="none" stroke="#4D80AA" stroke-width="30" d="M12000 5375h628"/><path fill="#4D80AA" d="M12631 5486l-22 29 391-140-391-140 21 28 17 34 11 37 4 39-3 40-11 38-17 35z"/></g><g class="prefix__com_sun_star_drawing_ConnectorShape"><path class="prefix__BoundingBox" fill="none" d="M11985 9735h1016v281h-1016z"/><path fill="none" stroke="#4D80AA" stroke-width="30" d="M12000 9875h628"/><path fill="#4D80AA" d="M12631 9986l-22 29 391-140-391-140 21 28 17 34 11 37 4 39-3 40-11 38-17 35z"/></g><g class="prefix__com_sun_star_drawing_ConnectorShape"><path class="prefix__BoundingBox" fill="none" d="M6360 8985h12156v2531H6360z"/><path fill="none" stroke="#4D80AA" stroke-width="30" d="M18500 9000v2500H6500V9372"/><path fill="#4D80AA" d="M6611 9369l29 22-140-391-140 391 28-21 34-17 37-11 39-4 40 3 38 11 35 17z"/></g><g class="prefix__com_sun_star_drawing_ConnectorShape"><path class="prefix__BoundingBox" fill="none" d="M11985 5360h1068v4516h-1068z"/><path fill="none" stroke="#B0B0B0" stroke-width="30" d="M12000 5375l919 4136"/><path fill="#B0B0B0" d="M12812 9539l-34-15 222 351 52-412-23 26-29 24-34 19-38 13-39 6-40-3-37-9z"/></g><g class="prefix__Group"><g class="prefix__com_sun_star_drawing_CustomShape"><path class="prefix__BoundingBox" fill="none" d="M16985 6235h3032v2782h-3032z"/><path fill="#D9EEFF" d="M17000 6250h3001v2751h-3001V6250z"/><path fill="none" stroke="#77A8D0" stroke-width="30" d="M17000 6250h3001v2751h-3001V6250h0z"/><text class="prefix__TextShape"><tspan class="prefix__TextParagraph" font-family="Liberation Sans, sans-serif" font-size="352" font-weight="400"><tspan class="prefix__TextPosition" x="17250" y="6693"><tspan fill="#4D80AA">Virtual collection</tspan></tspan></tspan></text></g><g class="prefix__com_sun_star_drawing_TableShape"><path class="prefix__BoundingBox" fill="none" d="M17212 7064h2574v1742h-2574z"/><path fill="none" stroke="#729FCF" stroke-width="18" d="M17205 7066h2587M17214 7057v1755M19783 7057v1755M17205 7645h2587M17205 8224h2587M17205 8803h2587"/></g></g><g class="prefix__com_sun_star_drawing_ConnectorShape"><path class="prefix__BoundingBox" fill="none" d="M15985 5360h1017v2266h-1017z"/><path fill="none" stroke="#4D80AA" stroke-width="30" d="M16000 5375l849 1910"/><path fill="#4D80AA" d="M16749 7333l-36-9 287 301-31-414-17 30-24 29-29 26-35 20-37 13-40 5-38-1z"/></g><g class="prefix__com_sun_star_drawing_ConnectorShape"><path class="prefix__BoundingBox" fill="none" d="M15985 7624h1016v2267h-1016z"/><path fill="none" stroke="#4D80AA" stroke-width="30" d="M16000 9875l849-1910"/><path fill="#4D80AA" d="M16951 8007l18 32 31-414-287 301 35-8 37-2 38 5 38 12 35 19 30 26 25 29z"/></g><g class="prefix__com_sun_star_drawing_CustomShape"><path class="prefix__BoundingBox" fill="none" d="M2225 4235h5402v3040H2225z"/><path fill="none" stroke="#B5B5B5" stroke-width="30" d="M6462 4250v1501M6462 5379l1149 1880"/><text class="prefix__TextShape"><tspan class="prefix__TextParagraph" font-family="Liberation Sans, sans-serif" font-size="282" font-weight="400"><tspan class="prefix__TextPosition" x="2234" y="4623"><tspan fill="#B0B0B0">Необходимые данные для:</tspan></tspan></tspan><tspan ooo:numbering-type="bullet-style" class="prefix__ListItem" font-family="Liberation Sans, sans-serif" font-size="282" font-weight="400"><tspan class="prefix__TextPosition" x="2234" y="4871"/><tspan class="prefix__TextPosition" x="2434" y="4941"><tspan fill="#B0B0B0">Получения значения</tspan></tspan></tspan><tspan ooo:numbering-type="bullet-style" class="prefix__ListItem" font-family="Liberation Sans, sans-serif" font-size="282" font-weight="400"><tspan class="prefix__TextPosition" x="2234" y="5189"/><tspan class="prefix__TextPosition" x="2434" y="5259"><tspan fill="#B0B0B0">Генерации HTML/JSON</tspan></tspan></tspan><tspan ooo:numbering-type="bullet-style" class="prefix__ListItem" font-family="Liberation Sans, sans-serif" font-size="282" font-weight="400"><tspan class="prefix__TextPosition" x="2234" y="5507"/><tspan class="prefix__TextPosition" x="2434" y="5577"><tspan fill="#B0B0B0">Обновления данных модели</tspan></tspan></tspan></text><g class="prefix__BulletChars"><use transform="matrix(126 0 0 126 2234 4871)" xlink:href="#prefix__a" fill="#BDBDBD"/><use transform="matrix(126 0 0 126 2234 5189)" xlink:href="#prefix__a" fill="#BDBDBD"/><use transform="matrix(126 0 0 126 2234 5507)" xlink:href="#prefix__a" fill="#BDBDBD"/></g></g><g class="prefix__Group"><g class="prefix__com_sun_star_drawing_LineShape"><path class="prefix__BoundingBox" fill="none" d="M12485 3985h31v7281h-31z"/><path fill="none" stroke="#B5B5B5" stroke-width="30" d="M12500 4000v7250"/></g><g class="prefix__com_sun_star_drawing_CustomShape"><path class="prefix__BoundingBox" fill="none" d="M12482 2235h2035v1798h-2035z"/><path fill="none" stroke="#B5B5B5" stroke-width="30" d="M13134 2250v1001M13134 2958l-637 1059"/><text class="prefix__TextShape"><tspan class="prefix__TextParagraph" font-family="Liberation Sans, sans-serif" font-size="282" font-weight="400"><tspan class="prefix__TextPosition" x="13250" y="2850"><tspan fill="#B0B0B0">Работа UI</tspan></tspan></tspan></text></g></g><g class="prefix__Group"><g class="prefix__com_sun_star_drawing_LineShape"><path class="prefix__BoundingBox" fill="none" d="M16485 3985h31v7281h-31z"/><path fill="none" stroke="#B5B5B5" stroke-width="30" d="M16500 4000v7250"/></g><g class="prefix__com_sun_star_drawing_CustomShape"><path class="prefix__BoundingBox" fill="none" d="M16498 2235h3145v1759h-3145z"/><path fill="none" stroke="#B5B5B5" stroke-width="30" d="M17131 2250v1001M17131 2929l-618 1049"/><text class="prefix__TextShape"><tspan class="prefix__TextParagraph" font-family="Liberation Sans, sans-serif" font-size="282" font-weight="400"><tspan class="prefix__TextPosition" x="17262" y="2691"><tspan fill="#B0B0B0">Binding до вызова</tspan></tspan></tspan><tspan class="prefix__TextParagraph" font-family="Liberation Sans, sans-serif" font-size="282" font-weight="400"><tspan class="prefix__TextPosition" x="17262" y="3009"><tspan fill="#B0B0B0">контроллера</tspan></tspan></tspan></text></g></g></g></svg>